<?xml version="1.0" standalone="no"?><!DOCTYPE svg PUBLIC "-//W3C//DTD SVG 1.1//EN" "http://www.w3.org/Graphics/SVG/1.1/DTD/svg11.dtd"><svg t="1783428805910" class="icon" viewBox="0 0 1024 1024" version="1.1" xmlns="http://www.w3.org/2000/svg" p-id="2053" xmlns:xlink="http://www.w3.org/1999/xlink" width="200" height="200"><path d="M783.538 196.271a96.001 96.001 0 0 1 59.732 62.288l10.244 33.319 25.8 23.602a96 96 0 0 1 29.896 86.62l-5.024 30.136 11.73 28.186a96.001 96.001 0 0 1-10.309 92.397l-18.562 26.189-2.157 32.04a95.998 95.998 0 0 1-46.699 76.055l-33.134 19.713-19.132 33.123a96 96 0 0 1-68.882 46.922l-44.647 6.7-36.321 26.033a96 96 0 0 1-77.738 15.462L512 824.245l-46.336 10.811a96 96 0 0 1-77.738-15.462l-36.321-26.033-44.647-6.7a95.997 95.997 0 0 1-68.882-46.922l-19.132-33.123-33.134-19.713a96 96 0 0 1-46.699-76.055l-2.157-32.04-18.562-26.189a96.001 96.001 0 0 1-10.309-92.397l11.73-28.186-5.024-30.136a96 96 0 0 1 29.896-86.62l25.8-23.602 10.244-33.319a96.001 96.001 0 0 1 59.732-62.288" fill="#FFFFFF" p-id="2054"></path><path d="M443.857 861.567a119.992 119.992 0 0 1-69.912-22.466l-31.621-22.664-38.929-5.842c-36.339-5.453-67.723-26.831-86.103-58.652l-16.001-27.703-27.753-16.512a119.996 119.996 0 0 1-58.374-95.068l-1.703-25.293-14.65-20.671C74.766 532.77 69.948 489.593 85.926 451.2l9.081-21.82-3.891-23.334c-6.71-40.253 7.26-80.73 37.37-108.275l20.979-19.192 8.323-27.073c11.111-36.139 39.023-65.245 74.665-77.86 12.493-4.421 26.209 2.122 30.632 14.618 4.422 12.495-2.122 26.21-14.618 30.632-21.385 7.568-38.132 25.032-44.799 46.715l-12.164 39.564-30.621 28.012c-18.066 16.527-26.448 40.813-22.422 64.965l6.158 36.937-14.379 34.553c-9.586 23.036-6.696 48.941 7.731 69.298l22.473 31.706 2.611 38.79a71.998 71.998 0 0 0 35.024 57.04l38.514 22.914 22.263 38.545c11.028 19.093 29.858 31.92 51.661 35.191l50.367 7.559 41.021 29.402a72 72 0 0 0 58.304 11.596L512 799.601l51.789 12.083a72.01 72.01 0 0 0 58.304-11.596l41.021-29.402 50.366-7.559c21.804-3.271 40.634-16.099 51.662-35.191l22.263-38.545 38.514-22.914a71.993 71.993 0 0 0 35.024-57.04l2.611-38.79 22.473-31.706c14.428-20.356 17.317-46.262 7.73-69.298L879.38 435.09l6.157-36.937c4.026-24.152-4.355-48.438-22.422-64.966l-30.622-28.011-12.163-39.564c-6.667-21.683-23.414-39.147-44.799-46.715-12.496-4.422-19.04-18.137-14.618-30.632 4.423-12.495 18.138-19.038 30.632-14.618 35.642 12.614 63.555 41.72 74.666 77.859l8.323 27.074 20.979 19.191c30.111 27.546 44.081 68.022 37.369 108.276l-3.89 23.333 9.081 21.821c15.978 38.392 11.16 81.569-12.886 115.496l-14.651 20.671-1.702 25.293a119.993 119.993 0 0 1-58.374 95.068l-27.753 16.512-16.001 27.703c-18.38 31.821-49.764 53.199-86.104 58.652l-38.927 5.842-31.621 22.664a119.997 119.997 0 0 1-97.173 19.326L512 848.89l-40.883 9.538a120.016 120.016 0 0 1-27.26 3.139z" fill="#333333" p-id="2055"></path><path d="M320 384l30.263-44.49 55.07-17.977 192.703-44.199C668.679 306.994 704 324.771 704 330.667c0 8.843 21.333 36.449 21.333 53.333S704 453.967 704 453.967l-384-20.104V384z" fill="#FBDDE3" p-id="2056"></path><path d="M724.649 368.612c0.453 5.069 0.684 10.202 0.684 15.388v85.333c0 94.257-76.41 170.667-170.667 170.667h-85.333c-94.257 0-170.667-76.41-170.667-170.667V384c0-6.006 0.31-11.94 0.916-17.786" fill="#FBDEE2" p-id="2057"></path><path d="M554.667 661.333h-85.333c-105.869 0-192-86.131-192-192V384c0-6.662 0.346-13.385 1.029-19.982l42.44 4.392A151.87 151.87 0 0 0 320 384v85.333c0 82.342 66.991 149.333 149.333 149.333h85.333C637.01 618.667 704 551.676 704 469.333V384a152.4 152.4 0 0 0-0.6-13.494l42.498-3.79c0.51 5.713 0.768 11.528 0.768 17.284v85.333c0 105.869-86.13 192-191.999 192z" fill="#333333" p-id="2058"></path><path d="M512.703 585.628c-11.398 0-22.113-4.438-30.171-12.499l-12.496-12.494c-4.722-4.724-7.321-10.999-7.321-17.674 0-6.678 2.601-12.955 7.323-17.676 4.715-4.717 10.992-7.317 17.67-7.317h49.987c6.677 0 12.953 2.6 17.674 7.32 4.719 4.716 7.32 10.993 7.32 17.673 0 6.677-2.6 12.953-7.32 17.674l-12.498 12.496c-8.055 8.058-18.769 12.497-30.168 12.497z" fill="#333333" p-id="2059"></path><path d="M406.036 453.967m-21.333 0a21.333 21.333 0 1 0 42.666 0 21.333 21.333 0 1 0-42.666 0Z" fill="#333333" p-id="2060"></path><path d="M406.037 481.701c-15.292 0-27.733-12.441-27.733-27.733s12.441-27.733 27.733-27.733 27.733 12.441 27.733 27.733-12.441 27.733-27.733 27.733z m0-42.667c-8.234 0-14.934 6.699-14.934 14.933s6.699 14.934 14.934 14.934c8.234 0 14.933-6.699 14.933-14.934 0-8.234-6.699-14.933-14.933-14.933z" fill="#333333" p-id="2061"></path><path d="M619.37 453.967m-21.333 0a21.333 21.333 0 1 0 42.666 0 21.333 21.333 0 1 0-42.666 0Z" fill="#333333" p-id="2062"></path><path d="M619.37 481.701c-15.293 0-27.734-12.441-27.734-27.733s12.441-27.733 27.734-27.733c15.292 0 27.733 12.441 27.733 27.733 0.001 15.292-12.441 27.733-27.733 27.733z m0-42.667c-8.234 0-14.934 6.699-14.934 14.933s6.699 14.934 14.934 14.934 14.933-6.699 14.933-14.934c0-8.234-6.699-14.933-14.933-14.933z" fill="#333333" p-id="2063"></path><path d="M235.568 416.04c-8.65 0.001-16.67-1.928-23.384-6.629-21.736-15.22-20.866-53.287-16.309-82.541 6.344-40.722 20.722-72.536 32.062-88.731l34.95 24.473c-9.91 14.152-19.027 38.913-23.793 64.617-4.499 24.259-3.415 39.774-1.715 46.2 6.62-0.6 21.569-4.888 42.827-17.413 22.524-13.271 42.673-30.307 52.583-44.459l34.95 24.473c-11.339 16.195-36.317 40.586-72.414 60.475-17.922 9.874-40.405 19.534-59.757 19.535zM792.845 417.356c-17.771 0.001-37.986-6.492-54.673-13.525-37.978-16.007-65.368-37.654-78.339-52.575l32.201-27.992c11.335 13.039 33.153 27.875 56.941 38.719 22.452 10.234 37.794 12.93 44.412 12.841 1.02-6.568 0.476-22.111-6.534-45.768-7.428-25.066-19.083-48.737-30.418-61.776l32.201-27.992c12.971 14.921 30.595 45.058 41.16 84.894 7.591 28.618 12.436 66.386-7.592 83.794-7.775 6.761-18.076 9.379-29.359 9.38z m-0.19-39.733z" fill="#333333" p-id="2064"></path><path d="M512 85.333c39.525 0 74.028 21.497 92.457 53.437C614.623 131.967 626.848 128 640 128c29.515 0 54.363 19.979 61.759 47.151a63.778 63.778 0 0 1 23.574-4.484c35.346 0 64 28.654 64 64s-28.654 64-64 64a63.83 63.83 0 0 1-23.578-4.483c-7.392 27.171-32.24 47.15-61.755 47.15-13.152 0-25.378-3.967-35.546-10.771C586.028 362.503 551.525 384 512 384s-74.028-21.497-92.457-53.437c-10.166 6.803-22.391 10.771-35.543 10.771-29.514 0-54.363-19.979-61.759-47.15a63.807 63.807 0 0 1-23.575 4.483c-35.346 0-64-28.654-64-64s28.654-64 64-64c8.326 0 16.281 1.59 23.577 4.483C329.637 147.979 354.486 128 384 128c13.152 0 25.378 3.967 35.545 10.77 18.426-31.939 52.93-53.437 92.455-53.437z" fill="#FFFFFF" p-id="2065"></path><path d="M512 405.333c-38.847 0-75.44-17.816-99.536-47.532A85.242 85.242 0 0 1 384 362.666c-31.22 0-59.438-17.088-74.316-43.371a86.185 86.185 0 0 1-11.017 0.704c-47.053 0-85.333-38.281-85.333-85.333s38.281-85.333 85.333-85.333c3.708 0 7.385 0.235 11.019 0.704 14.876-26.284 43.093-43.371 74.315-43.371a85.253 85.253 0 0 1 28.465 4.865C436.559 81.816 473.152 64 512 64c38.847 0 75.44 17.817 99.536 47.532A85.242 85.242 0 0 1 640 106.667c31.221 0 59.438 17.087 74.316 43.37a86.185 86.185 0 0 1 11.017-0.704c47.053 0 85.333 38.281 85.333 85.333S772.386 320 725.333 320c-3.708 0-7.385-0.235-11.019-0.704-14.875 26.284-43.092 43.371-74.314 43.371a85.234 85.234 0 0 1-28.466-4.866c-24.094 29.716-60.685 47.532-99.534 47.532z m-85.373-105.182l11.395 19.75c15.219 26.378 43.566 42.765 73.978 42.765 30.413 0 58.758-16.386 73.975-42.764l11.394-19.749 18.949 12.679C623.326 317.521 631.516 320 640 320c19.208 0 36.138-12.919 41.17-31.417l6.264-23.027 22.184 8.795c4.989 1.978 10.277 2.981 15.716 2.981 23.526 0 42.667-19.14 42.667-42.667S748.859 192 725.333 192c-5.438 0-10.723 1.002-15.705 2.98l-22.186 8.804-6.269-23.03c-5.035-18.5-21.966-31.42-41.174-31.42-8.484 0-16.672 2.478-23.678 7.167l-18.949 12.681-11.395-19.749c-15.22-26.378-43.566-42.765-73.979-42.765-30.413 0-58.759 16.386-73.977 42.764l-11.393 19.748-18.946-12.68c-7.008-4.688-15.197-7.167-23.682-7.167-19.208 0-36.138 12.919-41.171 31.417l-6.265 23.024-22.182-8.794c-4.99-1.978-10.277-2.981-15.715-2.981C275.14 192 256 211.14 256 234.667s19.14 42.667 42.667 42.667c5.439 0 10.724-1.002 15.709-2.979l22.182-8.799 6.268 23.026C347.861 307.08 364.793 320 384 320c8.485 0 16.672-2.478 23.678-7.167l18.949-12.682z" fill="#333333" p-id="2066"></path><path d="M426.667 853.333h42.667v85.333h-42.667zM554.667 853.333h42.667v85.333h-42.667z" fill="#333333" p-id="2067"></path><path d="M448.246 935.522m-42.667 0a42.667 42.667 0 1 0 85.334 0 42.667 42.667 0 1 0-85.334 0Z" fill="#333333" p-id="2068"></path><path d="M574.409 936.624m-42.667 0a42.667 42.667 0 1 0 85.334 0 42.667 42.667 0 1 0-85.334 0Z" fill="#333333" p-id="2069"></path></svg>